<?xml version="1.0" encoding="UTF-8" standalone="no"?>
<!DOCTYPE svg PUBLIC "-//W3C//DTD SVG 1.1//EN"
 "http://www.w3.org/Graphics/SVG/1.1/DTD/svg11.dtd">
<!-- Generated by graphviz version 2.43.0 (0)
 -->
<!-- Title: g Pages: 1 -->
<svg width="206pt" height="260pt"
 viewBox="0.00 0.00 206.00 260.00" xmlns="http://www.w3.org/2000/svg" xmlns:xlink="http://www.w3.org/1999/xlink">
<g id="graph0" class="graph" transform="scale(1 1) rotate(0) translate(4 256)">
<title>g</title>
<!-- 1 -->
<g id="node1" class="node">
<title>1</title>
<ellipse fill="none" stroke="black" cx="126" cy="-234" rx="18" ry="18"/>
<text text-anchor="middle" x="126" y="-230.3" font-family="Times,serif" font-size="14.00">1</text>
</g>
<!-- 2 -->
<g id="node2" class="node">
<title>2</title>
<ellipse fill="none" stroke="black" cx="72" cy="-162" rx="18" ry="18"/>
<text text-anchor="middle" x="72" y="-158.3" font-family="Times,serif" font-size="14.00">2</text>
</g>
<!-- 1&#45;&gt;2 -->
<g id="edge1" class="edge">
<title>1&#45;&gt;2</title>
<path fill="none" stroke="black" d="M115.33,-219.17C107.79,-209.39 97.52,-196.08 88.87,-184.87"/>
<polygon fill="black" stroke="black" points="91.53,-182.58 82.65,-176.8 85.98,-186.86 91.53,-182.58"/>
</g>
<!-- 3 -->
<g id="node7" class="node">
<title>3</title>
<ellipse fill="none" stroke="black" cx="126" cy="-162" rx="18" ry="18"/>
<text text-anchor="middle" x="126" y="-158.3" font-family="Times,serif" font-size="14.00">3</text>
</g>
<!-- 1&#45;&gt;3 -->
<g id="edge6" class="edge">
<title>1&#45;&gt;3</title>
<path fill="none" stroke="black" d="M126,-215.7C126,-207.98 126,-198.71 126,-190.11"/>
<polygon fill="black" stroke="black" points="129.5,-190.1 126,-180.1 122.5,-190.1 129.5,-190.1"/>
</g>
<!-- 4 -->
<g id="node8" class="node">
<title>4</title>
<ellipse fill="none" stroke="black" cx="180" cy="-162" rx="18" ry="18"/>
<text text-anchor="middle" x="180" y="-158.3" font-family="Times,serif" font-size="14.00">4</text>
</g>
<!-- 1&#45;&gt;4 -->
<g id="edge7" class="edge">
<title>1&#45;&gt;4</title>
<path fill="none" stroke="black" d="M136.67,-219.17C144.21,-209.39 154.48,-196.08 163.13,-184.87"/>
<polygon fill="black" stroke="black" points="166.02,-186.86 169.35,-176.8 160.47,-182.58 166.02,-186.86"/>
</g>
<!-- 5 -->
<g id="node3" class="node">
<title>5</title>
<ellipse fill="none" stroke="black" cx="45" cy="-90" rx="18" ry="18"/>
<text text-anchor="middle" x="45" y="-86.3" font-family="Times,serif" font-size="14.00">5</text>
</g>
<!-- 2&#45;&gt;5 -->
<g id="edge2" class="edge">
<title>2&#45;&gt;5</title>
<path fill="none" stroke="black" d="M65.74,-144.76C62.5,-136.37 58.47,-125.93 54.83,-116.5"/>
<polygon fill="black" stroke="black" points="58.09,-115.22 51.23,-107.15 51.56,-117.74 58.09,-115.22"/>
</g>
<!-- 6 -->
<g id="node6" class="node">
<title>6</title>
<ellipse fill="none" stroke="black" cx="99" cy="-90" rx="18" ry="18"/>
<text text-anchor="middle" x="99" y="-86.3" font-family="Times,serif" font-size="14.00">6</text>
</g>
<!-- 2&#45;&gt;6 -->
<g id="edge5" class="edge">
<title>2&#45;&gt;6</title>
<path fill="none" stroke="black" d="M78.26,-144.76C81.5,-136.37 85.53,-125.93 89.17,-116.5"/>
<polygon fill="black" stroke="black" points="92.44,-117.74 92.77,-107.15 85.91,-115.22 92.44,-117.74"/>
</g>
<!-- 8 -->
<g id="node4" class="node">
<title>8</title>
<ellipse fill="none" stroke="black" cx="18" cy="-18" rx="18" ry="18"/>
<text text-anchor="middle" x="18" y="-14.3" font-family="Times,serif" font-size="14.00">8</text>
</g>
<!-- 5&#45;&gt;8 -->
<g id="edge3" class="edge">
<title>5&#45;&gt;8</title>
<path fill="none" stroke="black" d="M38.74,-72.76C35.5,-64.37 31.47,-53.93 27.83,-44.5"/>
<polygon fill="black" stroke="black" points="31.09,-43.22 24.23,-35.15 24.56,-45.74 31.09,-43.22"/>
</g>
<!-- 9 -->
<g id="node5" class="node">
<title>9</title>
<ellipse fill="none" stroke="black" cx="72" cy="-18" rx="18" ry="18"/>
<text text-anchor="middle" x="72" y="-14.3" font-family="Times,serif" font-size="14.00">9</text>
</g>
<!-- 5&#45;&gt;9 -->
<g id="edge4" class="edge">
<title>5&#45;&gt;9</title>
<path fill="none" stroke="black" d="M51.26,-72.76C54.5,-64.37 58.53,-53.93 62.17,-44.5"/>
<polygon fill="black" stroke="black" points="65.44,-45.74 65.77,-35.15 58.91,-43.22 65.44,-45.74"/>
</g>
<!-- 7 -->
<g id="node9" class="node">
<title>7</title>
<ellipse fill="none" stroke="black" cx="180" cy="-90" rx="18" ry="18"/>
<text text-anchor="middle" x="180" y="-86.3" font-family="Times,serif" font-size="14.00">7</text>
</g>
<!-- 4&#45;&gt;7 -->
<g id="edge8" class="edge">
<title>4&#45;&gt;7</title>
<path fill="none" stroke="black" d="M180,-143.7C180,-135.98 180,-126.71 180,-118.11"/>
<polygon fill="black" stroke="black" points="183.5,-118.1 180,-108.1 176.5,-118.1 183.5,-118.1"/>
</g>
</g>
</svg>
