<?xml version="1.0" encoding="UTF-8" standalone="no"?>
<!DOCTYPE svg PUBLIC "-//W3C//DTD SVG 1.1//EN"
 "http://www.w3.org/Graphics/SVG/1.1/DTD/svg11.dtd">
<!-- Generated by graphviz version 2.43.0 (0)
 -->
<!-- Title: g Pages: 1 -->
<svg width="441pt" height="190pt"
 viewBox="0.00 0.00 441.00 190.00" xmlns="http://www.w3.org/2000/svg" xmlns:xlink="http://www.w3.org/1999/xlink">
<g id="graph0" class="graph" transform="scale(1 1) rotate(0) translate(4 186)">
<title>g</title>
<!-- root -->
<g id="node1" class="node">
<title>root</title>
<polygon fill="none" stroke="black" points="150.5,-145.5 150.5,-181.5 307.5,-181.5 307.5,-145.5 150.5,-145.5"/>
<text text-anchor="middle" x="163.5" y="-159.8" font-family="Times,serif" font-size="14.00">1</text>
<polyline fill="none" stroke="black" points="176.5,-145.5 176.5,-181.5 "/>
<text text-anchor="middle" x="194" y="-159.8" font-family="Times,serif" font-size="14.00">00</text>
<polyline fill="none" stroke="black" points="211.5,-145.5 211.5,-181.5 "/>
<text text-anchor="middle" x="224.5" y="-159.8" font-family="Times,serif" font-size="14.00">1</text>
<polyline fill="none" stroke="black" points="237.5,-145.5 237.5,-181.5 "/>
<text text-anchor="middle" x="259.5" y="-159.8" font-family="Times,serif" font-size="14.00">000</text>
<polyline fill="none" stroke="black" points="281.5,-145.5 281.5,-181.5 "/>
<text text-anchor="middle" x="294.5" y="-159.8" font-family="Times,serif" font-size="14.00">1</text>
</g>
<!-- b0 -->
<g id="node2" class="node">
<title>b0</title>
<polygon fill="none" stroke="black" points="39,-72.5 39,-108.5 179,-108.5 179,-72.5 39,-72.5"/>
<text text-anchor="middle" x="52" y="-86.8" font-family="Times,serif" font-size="14.00">1</text>
<polyline fill="none" stroke="black" points="65,-72.5 65,-108.5 "/>
<text text-anchor="middle" x="82.5" y="-86.8" font-family="Times,serif" font-size="14.00">00</text>
<polyline fill="none" stroke="black" points="100,-72.5 100,-108.5 "/>
<text text-anchor="middle" x="113" y="-86.8" font-family="Times,serif" font-size="14.00">1</text>
<polyline fill="none" stroke="black" points="126,-72.5 126,-108.5 "/>
<text text-anchor="middle" x="152.5" y="-86.8" font-family="Times,serif" font-size="14.00">0000</text>
</g>
<!-- root&#45;&gt;b0 -->
<g id="edge1" class="edge">
<title>root:f0&#45;&gt;b0</title>
<path fill="none" stroke="black" d="M163,-145C163,-133.36 156.59,-123.4 148.2,-115.33"/>
<polygon fill="black" stroke="black" points="150.3,-112.53 140.41,-108.73 145.78,-117.87 150.3,-112.53"/>
</g>
<!-- b1 -->
<g id="node3" class="node">
<title>b1</title>
<polygon fill="none" stroke="black" points="197,-72.5 197,-108.5 251,-108.5 251,-72.5 197,-72.5"/>
<text text-anchor="middle" x="224" y="-86.8" font-family="Times,serif" font-size="14.00">+4</text>
</g>
<!-- root&#45;&gt;b1 -->
<g id="edge2" class="edge">
<title>root:f1&#45;&gt;b1</title>
<path fill="none" stroke="black" d="M224,-145C224,-136.51 224,-127.26 224,-118.88"/>
<polygon fill="black" stroke="black" points="227.5,-118.85 224,-108.85 220.5,-118.85 227.5,-118.85"/>
</g>
<!-- b2 -->
<g id="node4" class="node">
<title>b2</title>
<polygon fill="none" stroke="black" points="269,-72.5 269,-108.5 409,-108.5 409,-72.5 269,-72.5"/>
<text text-anchor="middle" x="291" y="-86.8" font-family="Times,serif" font-size="14.00">000</text>
<polyline fill="none" stroke="black" points="313,-72.5 313,-108.5 "/>
<text text-anchor="middle" x="326" y="-86.8" font-family="Times,serif" font-size="14.00">1</text>
<polyline fill="none" stroke="black" points="339,-72.5 339,-108.5 "/>
<text text-anchor="middle" x="361" y="-86.8" font-family="Times,serif" font-size="14.00">000</text>
<polyline fill="none" stroke="black" points="383,-72.5 383,-108.5 "/>
<text text-anchor="middle" x="396" y="-86.8" font-family="Times,serif" font-size="14.00">1</text>
</g>
<!-- root&#45;&gt;b2 -->
<g id="edge3" class="edge">
<title>root:f2&#45;&gt;b2</title>
<path fill="none" stroke="black" d="M295,-145C295,-134.06 300.55,-124.15 307.71,-115.9"/>
<polygon fill="black" stroke="black" points="310.44,-118.13 314.94,-108.54 305.44,-113.22 310.44,-118.13"/>
</g>
<!-- c00 -->
<g id="node5" class="node">
<title>c00</title>
<text text-anchor="start" x="8" y="-14.3" font-family="monospace" font-size="14.00" fill="#d13232">#d13232</text>
</g>
<!-- b0&#45;&gt;c00 -->
<g id="edge4" class="edge">
<title>b0:f0&#45;&gt;c00</title>
<path fill="none" stroke="black" d="M52,-72C52,-63.3 50.1,-54.09 47.66,-45.83"/>
<polygon fill="black" stroke="black" points="50.98,-44.7 44.5,-36.32 44.33,-46.91 50.98,-44.7"/>
</g>
<!-- c01 -->
<g id="node6" class="node">
<title>c01</title>
<text text-anchor="start" x="100" y="-14.3" font-family="monospace" font-size="14.00" fill="#6c6e3b">#6c6e3b</text>
</g>
<!-- b0&#45;&gt;c01 -->
<g id="edge5" class="edge">
<title>b0:f1&#45;&gt;c01</title>
<path fill="none" stroke="black" d="M113,-72C113,-63.25 115.02,-54.03 117.63,-45.77"/>
<polygon fill="black" stroke="black" points="120.95,-46.87 121,-36.27 114.36,-44.53 120.95,-46.87"/>
</g>
<!-- c20 -->
<g id="node7" class="node">
<title>c20</title>
<text text-anchor="start" x="275" y="-14.3" font-family="monospace" font-size="14.00" fill="#1d6bd1">#1d6bd1</text>
</g>
<!-- b1&#45;&gt;c20 -->
<g id="edge8" class="edge">
<title>b1&#45;&gt;c20</title>
<path fill="none" stroke="black" stroke-dasharray="5,2" d="M243.37,-72.43C253.41,-63.58 265.85,-52.62 276.84,-42.93"/>
<polygon fill="black" stroke="black" points="279.35,-45.39 284.54,-36.15 274.72,-40.14 279.35,-45.39"/>
</g>
<!-- c21 -->
<g id="node8" class="node">
<title>c21</title>
<text text-anchor="start" x="367" y="-14.3" font-family="monospace" font-size="14.00" fill="#bd320b">#bd320b</text>
</g>
<!-- b1&#45;&gt;c21 -->
<g id="edge9" class="edge">
<title>b1&#45;&gt;c21</title>
<path fill="none" stroke="black" stroke-dasharray="5,2" d="M251.02,-76.08C254.03,-74.67 257.07,-73.28 260,-72 276.59,-64.75 317.03,-49.08 349.53,-36.65"/>
<polygon fill="black" stroke="black" points="350.8,-39.91 358.89,-33.07 348.3,-33.37 350.8,-39.91"/>
</g>
<!-- b2&#45;&gt;c20 -->
<g id="edge6" class="edge">
<title>b2:f0&#45;&gt;c20</title>
<path fill="none" stroke="black" d="M326,-72C326,-62.98 323.25,-53.71 319.69,-45.49"/>
<polygon fill="black" stroke="black" points="322.79,-43.86 315.26,-36.41 316.5,-46.93 322.79,-43.86"/>
</g>
<!-- b2&#45;&gt;c21 -->
<g id="edge7" class="edge">
<title>b2:f1&#45;&gt;c21</title>
<path fill="none" stroke="black" d="M396,-72C396,-63.68 396,-54.63 396,-46.4"/>
<polygon fill="black" stroke="black" points="399.5,-46.19 396,-36.19 392.5,-46.19 399.5,-46.19"/>
</g>
</g>
</svg>
