<?xml version="1.0" encoding="UTF-8" standalone="no"?>
<!DOCTYPE svg PUBLIC "-//W3C//DTD SVG 1.1//EN"
 "http://www.w3.org/Graphics/SVG/1.1/DTD/svg11.dtd">
<!-- Generated by graphviz version 2.43.0 (0)
 -->
<!-- Title: g Pages: 1 -->
<svg width="278pt" height="117pt"
 viewBox="0.00 0.00 278.00 117.00" xmlns="http://www.w3.org/2000/svg" xmlns:xlink="http://www.w3.org/1999/xlink">
<g id="graph0" class="graph" transform="scale(1 1) rotate(0) translate(4 113)">
<title>g</title>
<!-- root -->
<g id="node1" class="node">
<title>root</title>
<polygon fill="none" stroke="black" points="90.5,-72.5 90.5,-108.5 179.5,-108.5 179.5,-72.5 90.5,-72.5"/>
<text text-anchor="middle" x="135" y="-86.8" font-family="Times,serif" font-size="14.00">00000000</text>
</g>
<!-- c0 -->
<g id="node2" class="node">
<title>c0</title>
<text text-anchor="start" x="10" y="-14.3" font-family="monospace" font-size="14.00" fill="#d13232">#d33</text>
</g>
<!-- root&#45;&gt;c0 -->
<g id="edge1" class="edge">
<title>root&#45;&gt;c0</title>
<path fill="none" stroke="black" d="M108.86,-72.43C94.77,-63.24 77.19,-51.76 61.94,-41.81"/>
<polygon fill="black" stroke="black" points="63.56,-38.69 53.28,-36.15 59.74,-44.55 63.56,-38.69"/>
</g>
<!-- c1 -->
<g id="node3" class="node">
<title>c1</title>
<text text-anchor="start" x="82" y="-14.3" font-family="monospace" font-size="14.00" fill="#6c6e3b">#663</text>
</g>
<!-- root&#45;&gt;c1 -->
<g id="edge2" class="edge">
<title>root&#45;&gt;c1</title>
<path fill="none" stroke="black" d="M126.29,-72.43C122.15,-64.33 117.11,-54.46 112.49,-45.41"/>
<polygon fill="black" stroke="black" points="115.55,-43.71 107.88,-36.4 109.32,-46.9 115.55,-43.71"/>
</g>
<!-- cx -->
<g id="node4" class="node">
<title>cx</title>
<text text-anchor="middle" x="171" y="-14.3" font-family="Times,serif" font-size="14.00">...</text>
</g>
<!-- root&#45;&gt;cx -->
<g id="edge3" class="edge">
<title>root&#45;&gt;cx</title>
<path fill="none" stroke="black" stroke-width="2" d="M143.71,-72.43C147.85,-64.33 152.89,-54.46 157.51,-45.41"/>
<polygon fill="black" stroke="black" stroke-width="2" points="160.68,-46.9 162.12,-36.4 154.45,-43.71 160.68,-46.9"/>
</g>
<!-- clast -->
<g id="node5" class="node">
<title>clast</title>
<text text-anchor="start" x="226" y="-14.3" font-family="monospace" font-size="14.00" fill="#c98a2a">#c82</text>
</g>
<!-- root&#45;&gt;clast -->
<g id="edge4" class="edge">
<title>root&#45;&gt;clast</title>
<path fill="none" stroke="black" d="M161.14,-72.43C175.23,-63.24 192.81,-51.76 208.06,-41.81"/>
<polygon fill="black" stroke="black" points="210.26,-44.55 216.72,-36.15 206.44,-38.69 210.26,-44.55"/>
</g>
</g>
</svg>
