<?xml version="1.0" encoding="UTF-8" standalone="no"?>
<!DOCTYPE svg PUBLIC "-//W3C//DTD SVG 1.1//EN"
 "http://www.w3.org/Graphics/SVG/1.1/DTD/svg11.dtd">
<!-- Generated by graphviz version 2.43.0 (0)
 -->
<!-- Title: g Pages: 1 -->
<svg width="278pt" height="188pt"
 viewBox="0.00 0.00 278.00 188.00" xmlns="http://www.w3.org/2000/svg" xmlns:xlink="http://www.w3.org/1999/xlink">
<g id="graph0" class="graph" transform="scale(1 1) rotate(0) translate(4 184)">
<title>g</title>
<!-- ** -->
<g id="node1" class="node">
<title>**</title>
<polygon fill="none" stroke="black" points="162,-180 108,-180 108,-144 162,-144 162,-180"/>
<text text-anchor="middle" x="135" y="-158.3" font-family="Times,serif" font-size="14.00">**</text>
</g>
<!-- 0* -->
<g id="node2" class="node">
<title>0*</title>
<polygon fill="none" stroke="black" points="126,-108 72,-108 72,-72 126,-72 126,-108"/>
<text text-anchor="middle" x="99" y="-86.3" font-family="Times,serif" font-size="14.00">0*</text>
</g>
<!-- **&#45;&gt;0* -->
<g id="edge1" class="edge">
<title>**&#45;&gt;0*</title>
<path fill="none" stroke="black" d="M126.1,-143.7C122,-135.73 117.05,-126.1 112.51,-117.26"/>
<polygon fill="black" stroke="black" points="115.48,-115.4 107.8,-108.1 109.26,-118.6 115.48,-115.4"/>
</g>
<!-- 1* -->
<g id="node3" class="node">
<title>1*</title>
<polygon fill="none" stroke="black" points="198,-108 144,-108 144,-72 198,-72 198,-108"/>
<text text-anchor="middle" x="171" y="-86.3" font-family="Times,serif" font-size="14.00">1*</text>
</g>
<!-- **&#45;&gt;1* -->
<g id="edge2" class="edge">
<title>**&#45;&gt;1*</title>
<path fill="none" stroke="black" d="M143.9,-143.7C148,-135.73 152.95,-126.1 157.49,-117.26"/>
<polygon fill="black" stroke="black" points="160.74,-118.6 162.2,-108.1 154.52,-115.4 160.74,-118.6"/>
</g>
<!-- 00 -->
<g id="node4" class="node">
<title>00</title>
<polygon fill="none" stroke="black" points="54,-36 0,-36 0,0 54,0 54,-36"/>
<text text-anchor="middle" x="27" y="-14.3" font-family="Times,serif" font-size="14.00">00</text>
</g>
<!-- 0*&#45;&gt;00 -->
<g id="edge3" class="edge">
<title>0*&#45;&gt;00</title>
<path fill="none" stroke="black" d="M81.2,-71.7C72.4,-63.14 61.62,-52.66 52,-43.3"/>
<polygon fill="black" stroke="black" points="54.2,-40.57 44.59,-36.1 49.32,-45.58 54.2,-40.57"/>
</g>
<!-- 01 -->
<g id="node5" class="node">
<title>01</title>
<polygon fill="none" stroke="black" points="126,-36 72,-36 72,0 126,0 126,-36"/>
<text text-anchor="middle" x="99" y="-14.3" font-family="Times,serif" font-size="14.00">01</text>
</g>
<!-- 0*&#45;&gt;01 -->
<g id="edge4" class="edge">
<title>0*&#45;&gt;01</title>
<path fill="none" stroke="black" d="M99,-71.7C99,-63.98 99,-54.71 99,-46.11"/>
<polygon fill="black" stroke="black" points="102.5,-46.1 99,-36.1 95.5,-46.1 102.5,-46.1"/>
</g>
<!-- 10 -->
<g id="node6" class="node">
<title>10</title>
<polygon fill="none" stroke="black" points="198,-36 144,-36 144,0 198,0 198,-36"/>
<text text-anchor="middle" x="171" y="-14.3" font-family="Times,serif" font-size="14.00">10</text>
</g>
<!-- 1*&#45;&gt;10 -->
<g id="edge5" class="edge">
<title>1*&#45;&gt;10</title>
<path fill="none" stroke="black" d="M171,-71.7C171,-63.98 171,-54.71 171,-46.11"/>
<polygon fill="black" stroke="black" points="174.5,-46.1 171,-36.1 167.5,-46.1 174.5,-46.1"/>
</g>
<!-- 11 -->
<g id="node7" class="node">
<title>11</title>
<polygon fill="none" stroke="black" points="270,-36 216,-36 216,0 270,0 270,-36"/>
<text text-anchor="middle" x="243" y="-14.3" font-family="Times,serif" font-size="14.00">11</text>
</g>
<!-- 1*&#45;&gt;11 -->
<g id="edge6" class="edge">
<title>1*&#45;&gt;11</title>
<path fill="none" stroke="black" d="M188.8,-71.7C197.6,-63.14 208.38,-52.66 218,-43.3"/>
<polygon fill="black" stroke="black" points="220.68,-45.58 225.41,-36.1 215.8,-40.57 220.68,-45.58"/>
</g>
</g>
</svg>
