<?xml version="1.0" encoding="UTF-8" standalone="no"?>
<!DOCTYPE svg PUBLIC "-//W3C//DTD SVG 1.1//EN"
 "http://www.w3.org/Graphics/SVG/1.1/DTD/svg11.dtd">
<!-- Generated by graphviz version 2.43.0 (0)
 -->
<!-- Title: g Pages: 1 -->
<svg width="602pt" height="190pt"
 viewBox="0.00 0.00 602.00 190.00" xmlns="http://www.w3.org/2000/svg" xmlns:xlink="http://www.w3.org/1999/xlink">
<g id="graph0" class="graph" transform="scale(1 1) rotate(0) translate(4 186)">
<title>g</title>
<!-- root -->
<g id="node1" class="node">
<title>root</title>
<polygon fill="none" stroke="black" points="219,-145.5 219,-181.5 427,-181.5 427,-145.5 219,-145.5"/>
<text text-anchor="middle" x="232" y="-159.8" font-family="Times,serif" font-size="14.00">1</text>
<polyline fill="none" stroke="black" points="245,-145.5 245,-181.5 "/>
<text text-anchor="middle" x="258" y="-159.8" font-family="Times,serif" font-size="14.00">1</text>
<polyline fill="none" stroke="black" points="271,-145.5 271,-181.5 "/>
<text text-anchor="middle" x="284" y="-159.8" font-family="Times,serif" font-size="14.00">1</text>
<polyline fill="none" stroke="black" points="297,-145.5 297,-181.5 "/>
<text text-anchor="middle" x="310" y="-159.8" font-family="Times,serif" font-size="14.00">1</text>
<polyline fill="none" stroke="black" points="323,-145.5 323,-181.5 "/>
<text text-anchor="middle" x="336" y="-159.8" font-family="Times,serif" font-size="14.00">1</text>
<polyline fill="none" stroke="black" points="349,-145.5 349,-181.5 "/>
<text text-anchor="middle" x="362" y="-159.8" font-family="Times,serif" font-size="14.00">1</text>
<polyline fill="none" stroke="black" points="375,-145.5 375,-181.5 "/>
<text text-anchor="middle" x="388" y="-159.8" font-family="Times,serif" font-size="14.00">1</text>
<polyline fill="none" stroke="black" points="401,-145.5 401,-181.5 "/>
<text text-anchor="middle" x="414" y="-159.8" font-family="Times,serif" font-size="14.00">1</text>
</g>
<!-- b0 -->
<g id="node2" class="node">
<title>b0</title>
<polygon fill="none" stroke="black" points="68,-72.5 68,-108.5 276,-108.5 276,-72.5 68,-72.5"/>
<text text-anchor="middle" x="81" y="-86.8" font-family="Times,serif" font-size="14.00">1</text>
<polyline fill="none" stroke="black" points="94,-72.5 94,-108.5 "/>
<text text-anchor="middle" x="107" y="-86.8" font-family="Times,serif" font-size="14.00">1</text>
<polyline fill="none" stroke="black" points="120,-72.5 120,-108.5 "/>
<text text-anchor="middle" x="133" y="-86.8" font-family="Times,serif" font-size="14.00">1</text>
<polyline fill="none" stroke="black" points="146,-72.5 146,-108.5 "/>
<text text-anchor="middle" x="159" y="-86.8" font-family="Times,serif" font-size="14.00">1</text>
<polyline fill="none" stroke="black" points="172,-72.5 172,-108.5 "/>
<text text-anchor="middle" x="185" y="-86.8" font-family="Times,serif" font-size="14.00">1</text>
<polyline fill="none" stroke="black" points="198,-72.5 198,-108.5 "/>
<text text-anchor="middle" x="211" y="-86.8" font-family="Times,serif" font-size="14.00">1</text>
<polyline fill="none" stroke="black" points="224,-72.5 224,-108.5 "/>
<text text-anchor="middle" x="237" y="-86.8" font-family="Times,serif" font-size="14.00">1</text>
<polyline fill="none" stroke="black" points="250,-72.5 250,-108.5 "/>
<text text-anchor="middle" x="263" y="-86.8" font-family="Times,serif" font-size="14.00">1</text>
</g>
<!-- root&#45;&gt;b0 -->
<g id="edge1" class="edge">
<title>root:f0&#45;&gt;b0</title>
<path fill="none" stroke="black" d="M232,-145C232,-132.9 225.12,-122.86 216.01,-114.87"/>
<polygon fill="black" stroke="black" points="218,-111.98 207.94,-108.64 213.72,-117.52 218,-111.98"/>
</g>
<!-- bx -->
<g id="node3" class="node">
<title>bx</title>
<polygon fill="none" stroke="black" points="296,-72.5 296,-108.5 350,-108.5 350,-72.5 296,-72.5"/>
<text text-anchor="middle" x="323" y="-86.8" font-family="Times,serif" font-size="14.00">...</text>
</g>
<!-- root&#45;&gt;bx -->
<g id="edge2" class="edge">
<title>root&#45;&gt;bx</title>
<path fill="none" stroke="black" stroke-width="2" d="M323,-145.31C323,-137.29 323,-127.55 323,-118.57"/>
<polygon fill="black" stroke="black" stroke-width="2" points="326.5,-118.53 323,-108.53 319.5,-118.53 326.5,-118.53"/>
</g>
<!-- b7 -->
<g id="node4" class="node">
<title>b7</title>
<polygon fill="none" stroke="black" points="372,-72.5 372,-108.5 580,-108.5 580,-72.5 372,-72.5"/>
<text text-anchor="middle" x="385" y="-86.8" font-family="Times,serif" font-size="14.00">1</text>
<polyline fill="none" stroke="black" points="398,-72.5 398,-108.5 "/>
<text text-anchor="middle" x="411" y="-86.8" font-family="Times,serif" font-size="14.00">1</text>
<polyline fill="none" stroke="black" points="424,-72.5 424,-108.5 "/>
<text text-anchor="middle" x="437" y="-86.8" font-family="Times,serif" font-size="14.00">1</text>
<polyline fill="none" stroke="black" points="450,-72.5 450,-108.5 "/>
<text text-anchor="middle" x="463" y="-86.8" font-family="Times,serif" font-size="14.00">1</text>
<polyline fill="none" stroke="black" points="476,-72.5 476,-108.5 "/>
<text text-anchor="middle" x="489" y="-86.8" font-family="Times,serif" font-size="14.00">1</text>
<polyline fill="none" stroke="black" points="502,-72.5 502,-108.5 "/>
<text text-anchor="middle" x="515" y="-86.8" font-family="Times,serif" font-size="14.00">1</text>
<polyline fill="none" stroke="black" points="528,-72.5 528,-108.5 "/>
<text text-anchor="middle" x="541" y="-86.8" font-family="Times,serif" font-size="14.00">1</text>
<polyline fill="none" stroke="black" points="554,-72.5 554,-108.5 "/>
<text text-anchor="middle" x="567" y="-86.8" font-family="Times,serif" font-size="14.00">1</text>
</g>
<!-- root&#45;&gt;b7 -->
<g id="edge3" class="edge">
<title>root:f7&#45;&gt;b7</title>
<path fill="none" stroke="black" d="M414,-145C414,-132.78 420.99,-122.74 430.27,-114.79"/>
<polygon fill="black" stroke="black" points="432.61,-117.4 438.5,-108.6 428.41,-111.81 432.61,-117.4"/>
</g>
<!-- c0 -->
<g id="node5" class="node">
<title>c0</title>
<text text-anchor="start" x="10" y="-14.3" font-family="monospace" font-size="14.00" fill="#d13232">#d33</text>
</g>
<!-- b0&#45;&gt;c0 -->
<g id="edge4" class="edge">
<title>b0:f0&#45;&gt;c0</title>
<path fill="none" stroke="black" d="M81,-72C81,-58.71 72.56,-47.64 62.35,-39.12"/>
<polygon fill="black" stroke="black" points="64.42,-36.29 54.32,-33.1 60.23,-41.9 64.42,-36.29"/>
</g>
<!-- c1 -->
<g id="node6" class="node">
<title>c1</title>
<text text-anchor="start" x="82" y="-14.3" font-family="monospace" font-size="14.00" fill="#6c6e3b">#663</text>
</g>
<!-- b0&#45;&gt;c1 -->
<g id="edge5" class="edge">
<title>b0:f1&#45;&gt;c1</title>
<path fill="none" stroke="black" d="M107,-72C107,-63.49 105.98,-54.31 104.67,-46.01"/>
<polygon fill="black" stroke="black" points="108.1,-45.32 102.91,-36.09 101.21,-46.55 108.1,-45.32"/>
</g>
<!-- cx -->
<g id="node7" class="node">
<title>cx</title>
<text text-anchor="middle" x="171" y="-14.3" font-family="Times,serif" font-size="14.00">...</text>
</g>
<!-- b0&#45;&gt;cx -->
<g id="edge6" class="edge">
<title>b0&#45;&gt;cx</title>
<path fill="none" stroke="black" stroke-width="2" d="M171.76,-72.43C171.65,-64.67 171.51,-55.28 171.39,-46.56"/>
<polygon fill="black" stroke="black" stroke-width="2" points="174.89,-46.35 171.25,-36.4 167.89,-46.45 174.89,-46.35"/>
</g>
<!-- c6 -->
<g id="node8" class="node">
<title>c6</title>
<text text-anchor="start" x="226" y="-14.3" font-family="monospace" font-size="14.00" fill="#c70000">#c00</text>
</g>
<!-- b0&#45;&gt;c6 -->
<g id="edge7" class="edge">
<title>b0:f6&#45;&gt;c6</title>
<path fill="none" stroke="black" d="M237,-72C237,-63.54 237.76,-54.36 238.75,-46.06"/>
<polygon fill="black" stroke="black" points="242.22,-46.5 240.07,-36.13 235.28,-45.58 242.22,-46.5"/>
</g>
<!-- c7 -->
<g id="node9" class="node">
<title>c7</title>
<text text-anchor="start" x="298" y="-14.3" font-family="monospace" font-size="14.00" fill="#c2065a">#c05</text>
</g>
<!-- b0&#45;&gt;c7 -->
<g id="edge8" class="edge">
<title>b0:f7&#45;&gt;c7</title>
<path fill="none" stroke="black" d="M263,-72C263,-59.51 270.45,-48.89 279.7,-40.5"/>
<polygon fill="black" stroke="black" points="282.19,-42.99 287.78,-33.99 277.8,-37.54 282.19,-42.99"/>
</g>
<!-- c70 -->
<g id="node10" class="node">
<title>c70</title>
<text text-anchor="start" x="370" y="-14.3" font-family="monospace" font-size="14.00" fill="#1d6bd1">#16d</text>
</g>
<!-- b7&#45;&gt;c70 -->
<g id="edge9" class="edge">
<title>b7:f0&#45;&gt;c70</title>
<path fill="none" stroke="black" d="M385,-72C385,-63.68 385.25,-54.62 385.57,-46.39"/>
<polygon fill="black" stroke="black" points="389.08,-46.32 386.02,-36.18 382.09,-46.02 389.08,-46.32"/>
</g>
<!-- c7x -->
<g id="node11" class="node">
<title>c7x</title>
<text text-anchor="middle" x="476" y="-14.3" font-family="Times,serif" font-size="14.00">...</text>
</g>
<!-- b7&#45;&gt;c7x -->
<g id="edge10" class="edge">
<title>b7&#45;&gt;c7x</title>
<path fill="none" stroke="black" stroke-width="2" d="M476,-72.43C476,-64.67 476,-55.28 476,-46.56"/>
<polygon fill="black" stroke="black" stroke-width="2" points="479.5,-46.4 476,-36.4 472.5,-46.4 479.5,-46.4"/>
</g>
<!-- c77 -->
<g id="node12" class="node">
<title>c77</title>
<text text-anchor="start" x="550" y="-14.3" font-family="monospace" font-size="14.00" fill="#c98a2a">#c82</text>
</g>
<!-- b7&#45;&gt;c77 -->
<g id="edge11" class="edge">
<title>b7:f7&#45;&gt;c77</title>
<path fill="none" stroke="black" d="M567,-72C567,-63.68 567,-54.63 567,-46.4"/>
<polygon fill="black" stroke="black" points="570.5,-46.19 567,-36.19 563.5,-46.19 570.5,-46.19"/>
</g>
</g>
</svg>
