<?xml version="1.0" encoding="UTF-8" standalone="no"?>
<!DOCTYPE svg PUBLIC "-//W3C//DTD SVG 1.1//EN"
 "http://www.w3.org/Graphics/SVG/1.1/DTD/svg11.dtd">
<!-- Generated by graphviz version 2.43.0 (0)
 -->
<!-- Title: g Pages: 1 -->
<svg width="436pt" height="190pt"
 viewBox="0.00 0.00 435.50 190.00" xmlns="http://www.w3.org/2000/svg" xmlns:xlink="http://www.w3.org/1999/xlink">
<g id="graph0" class="graph" transform="scale(1 1) rotate(0) translate(4 186)">
<title>g</title>
<!-- root -->
<g id="node1" class="node">
<title>root</title>
<polygon fill="none" stroke="black" points="168.5,-145.5 168.5,-181.5 325.5,-181.5 325.5,-145.5 168.5,-145.5"/>
<text text-anchor="middle" x="181.5" y="-159.8" font-family="Times,serif" font-size="14.00">1</text>
<polyline fill="none" stroke="black" points="194.5,-145.5 194.5,-181.5 "/>
<text text-anchor="middle" x="212" y="-159.8" font-family="Times,serif" font-size="14.00">00</text>
<polyline fill="none" stroke="black" points="229.5,-145.5 229.5,-181.5 "/>
<text text-anchor="middle" x="242.5" y="-159.8" font-family="Times,serif" font-size="14.00">1</text>
<polyline fill="none" stroke="black" points="255.5,-145.5 255.5,-181.5 "/>
<text text-anchor="middle" x="277.5" y="-159.8" font-family="Times,serif" font-size="14.00">000</text>
<polyline fill="none" stroke="black" points="299.5,-145.5 299.5,-181.5 "/>
<text text-anchor="middle" x="312.5" y="-159.8" font-family="Times,serif" font-size="14.00">1</text>
</g>
<!-- b0 -->
<g id="node2" class="node">
<title>b0</title>
<polygon fill="none" stroke="black" points="39,-72.5 39,-108.5 179,-108.5 179,-72.5 39,-72.5"/>
<text text-anchor="middle" x="52" y="-86.8" font-family="Times,serif" font-size="14.00">1</text>
<polyline fill="none" stroke="black" points="65,-72.5 65,-108.5 "/>
<text text-anchor="middle" x="82.5" y="-86.8" font-family="Times,serif" font-size="14.00">00</text>
<polyline fill="none" stroke="black" points="100,-72.5 100,-108.5 "/>
<text text-anchor="middle" x="113" y="-86.8" font-family="Times,serif" font-size="14.00">1</text>
<polyline fill="none" stroke="black" points="126,-72.5 126,-108.5 "/>
<text text-anchor="middle" x="152.5" y="-86.8" font-family="Times,serif" font-size="14.00">0000</text>
</g>
<!-- root&#45;&gt;b0 -->
<g id="edge1" class="edge">
<title>root:f0&#45;&gt;b0</title>
<path fill="none" stroke="black" d="M181,-145C181,-132.22 173.6,-122.14 163.55,-114.33"/>
<polygon fill="black" stroke="black" points="165.25,-111.26 155.01,-108.56 161.33,-117.06 165.25,-111.26"/>
</g>
<!-- b1 -->
<g id="node3" class="node">
<title>b1</title>
<polygon fill="none" stroke="black" points="197.5,-72.5 197.5,-108.5 286.5,-108.5 286.5,-72.5 197.5,-72.5"/>
<text text-anchor="middle" x="242" y="-86.8" font-family="Times,serif" font-size="14.00">00000000</text>
</g>
<!-- root&#45;&gt;b1 -->
<g id="edge2" class="edge">
<title>root:f1&#45;&gt;b1</title>
<path fill="none" stroke="black" d="M242,-145C242,-136.51 242,-127.26 242,-118.88"/>
<polygon fill="black" stroke="black" points="245.5,-118.85 242,-108.85 238.5,-118.85 245.5,-118.85"/>
</g>
<!-- b2 -->
<g id="node4" class="node">
<title>b2</title>
<polygon fill="none" stroke="black" points="304.5,-72.5 304.5,-108.5 427.5,-108.5 427.5,-72.5 304.5,-72.5"/>
<text text-anchor="middle" x="326.5" y="-86.8" font-family="Times,serif" font-size="14.00">000</text>
<polyline fill="none" stroke="black" points="348.5,-72.5 348.5,-108.5 "/>
<text text-anchor="middle" x="361.5" y="-86.8" font-family="Times,serif" font-size="14.00">1</text>
<polyline fill="none" stroke="black" points="374.5,-72.5 374.5,-108.5 "/>
<text text-anchor="middle" x="401" y="-86.8" font-family="Times,serif" font-size="14.00">0000</text>
</g>
<!-- root&#45;&gt;b2 -->
<g id="edge3" class="edge">
<title>root:f2&#45;&gt;b2</title>
<path fill="none" stroke="black" d="M313,-145C313,-133.37 319.4,-123.36 327.75,-115.26"/>
<polygon fill="black" stroke="black" points="330.17,-117.79 335.48,-108.63 325.61,-112.48 330.17,-117.79"/>
</g>
<!-- c00 -->
<g id="node5" class="node">
<title>c00</title>
<text text-anchor="start" x="8" y="-14.3" font-family="monospace" font-size="14.00" fill="#d13232">#d13232</text>
</g>
<!-- b0&#45;&gt;c00 -->
<g id="edge4" class="edge">
<title>b0:f0&#45;&gt;c00</title>
<path fill="none" stroke="black" d="M52,-72C52,-63.3 50.1,-54.09 47.66,-45.83"/>
<polygon fill="black" stroke="black" points="50.98,-44.7 44.5,-36.32 44.33,-46.91 50.98,-44.7"/>
</g>
<!-- c01 -->
<g id="node6" class="node">
<title>c01</title>
<text text-anchor="start" x="100" y="-14.3" font-family="monospace" font-size="14.00" fill="#6c6e3b">#6c6e3b</text>
</g>
<!-- b0&#45;&gt;c01 -->
<g id="edge5" class="edge">
<title>b0:f1&#45;&gt;c01</title>
<path fill="none" stroke="black" d="M113,-72C113,-63.25 115.02,-54.03 117.63,-45.77"/>
<polygon fill="black" stroke="black" points="120.95,-46.87 121,-36.27 114.36,-44.53 120.95,-46.87"/>
</g>
<!-- c20 -->
<g id="node7" class="node">
<title>c20</title>
<text text-anchor="start" x="332" y="-14.3" font-family="monospace" font-size="14.00" fill="#1d6bd1">#1d6bd1</text>
</g>
<!-- b2&#45;&gt;c20 -->
<g id="edge6" class="edge">
<title>b2:f0&#45;&gt;c20</title>
<path fill="none" stroke="black" d="M361,-72C361,-63.68 361,-54.63 361,-46.4"/>
<polygon fill="black" stroke="black" points="364.5,-46.19 361,-36.19 357.5,-46.19 364.5,-46.19"/>
</g>
</g>
</svg>
