<?xml version="1.0" encoding="UTF-8" standalone="no"?>
<!DOCTYPE svg PUBLIC "-//W3C//DTD SVG 1.1//EN"
 "http://www.w3.org/Graphics/SVG/1.1/DTD/svg11.dtd">
<!-- Generated by graphviz version 2.43.0 (0)
 -->
<!-- Title: g Pages: 1 -->
<svg width="387pt" height="117pt"
 viewBox="0.00 0.00 387.00 117.00" xmlns="http://www.w3.org/2000/svg" xmlns:xlink="http://www.w3.org/1999/xlink">
<g id="graph0" class="graph" transform="scale(1 1) rotate(0) translate(4 113)">
<title>g</title>
<!-- root -->
<g id="node1" class="node">
<title>root</title>
<polygon fill="none" stroke="black" points="39,-72.5 39,-108.5 379,-108.5 379,-72.5 39,-72.5"/>
<text text-anchor="middle" x="52" y="-86.8" font-family="Times,serif" font-size="14.00">1</text>
<polyline fill="none" stroke="black" points="65,-72.5 65,-108.5 "/>
<text text-anchor="middle" x="82.5" y="-86.8" font-family="Times,serif" font-size="14.00">00</text>
<polyline fill="none" stroke="black" points="100,-72.5 100,-108.5 "/>
<text text-anchor="middle" x="113" y="-86.8" font-family="Times,serif" font-size="14.00">1</text>
<polyline fill="none" stroke="black" points="126,-72.5 126,-108.5 "/>
<text text-anchor="middle" x="213" y="-86.8" font-family="Times,serif" font-size="14.00">00000000...00000000</text>
<polyline fill="none" stroke="black" points="300,-72.5 300,-108.5 "/>
<text text-anchor="middle" x="313" y="-86.8" font-family="Times,serif" font-size="14.00">1</text>
<polyline fill="none" stroke="black" points="326,-72.5 326,-108.5 "/>
<text text-anchor="middle" x="352.5" y="-86.8" font-family="Times,serif" font-size="14.00">0000</text>
</g>
<!-- c00 -->
<g id="node2" class="node">
<title>c00</title>
<text text-anchor="start" x="8" y="-14.3" font-family="monospace" font-size="14.00" fill="#d13232">#d13232</text>
</g>
<!-- root&#45;&gt;c00 -->
<g id="edge1" class="edge">
<title>root:f0&#45;&gt;c00</title>
<path fill="none" stroke="black" d="M52,-72C52,-63.3 50.1,-54.09 47.66,-45.83"/>
<polygon fill="black" stroke="black" points="50.98,-44.7 44.5,-36.32 44.33,-46.91 50.98,-44.7"/>
</g>
<!-- c01 -->
<g id="node3" class="node">
<title>c01</title>
<text text-anchor="start" x="100" y="-14.3" font-family="monospace" font-size="14.00" fill="#6c6e3b">#6c6e3b</text>
</g>
<!-- root&#45;&gt;c01 -->
<g id="edge2" class="edge">
<title>root:f1&#45;&gt;c01</title>
<path fill="none" stroke="black" d="M113,-72C113,-63.25 115.02,-54.03 117.63,-45.77"/>
<polygon fill="black" stroke="black" points="120.95,-46.87 121,-36.27 114.36,-44.53 120.95,-46.87"/>
</g>
<!-- c20 -->
<g id="node4" class="node">
<title>c20</title>
<text text-anchor="start" x="284" y="-14.3" font-family="monospace" font-size="14.00" fill="#1d6bd1">#1d6bd1</text>
</g>
<!-- root&#45;&gt;c20 -->
<g id="edge3" class="edge">
<title>root:f2&#45;&gt;c20</title>
<path fill="none" stroke="black" d="M313,-72C313,-63.68 313,-54.63 313,-46.4"/>
<polygon fill="black" stroke="black" points="316.5,-46.19 313,-36.19 309.5,-46.19 316.5,-46.19"/>
</g>
</g>
</svg>
