<?xml version="1.0" encoding="UTF-8" standalone="no"?>
<!DOCTYPE svg PUBLIC "-//W3C//DTD SVG 1.1//EN"
 "http://www.w3.org/Graphics/SVG/1.1/DTD/svg11.dtd">
<!-- Generated by graphviz version 2.43.0 (0)
 -->
<!-- Title: g Pages: 1 -->
<svg width="955pt" height="210pt"
 viewBox="0.00 0.00 955.00 210.03" xmlns="http://www.w3.org/2000/svg" xmlns:xlink="http://www.w3.org/1999/xlink">
<g id="graph0" class="graph" transform="scale(1 1) rotate(0) translate(4 206.03)">
<title>g</title>
<!-- root -->
<g id="node1" class="node">
<title>root</title>
<polygon fill="none" stroke="black" points="0,-81.69 0,-117.69 157,-117.69 157,-81.69 0,-81.69"/>
<text text-anchor="middle" x="13" y="-95.99" font-family="Times,serif" font-size="14.00">1</text>
<polyline fill="none" stroke="black" points="26,-81.69 26,-117.69 "/>
<text text-anchor="middle" x="43.5" y="-95.99" font-family="Times,serif" font-size="14.00">00</text>
<polyline fill="none" stroke="black" points="61,-81.69 61,-117.69 "/>
<text text-anchor="middle" x="74" y="-95.99" font-family="Times,serif" font-size="14.00">1</text>
<polyline fill="none" stroke="black" points="87,-81.69 87,-117.69 "/>
<text text-anchor="middle" x="109" y="-95.99" font-family="Times,serif" font-size="14.00">000</text>
<polyline fill="none" stroke="black" points="131,-81.69 131,-117.69 "/>
<text text-anchor="middle" x="144" y="-95.99" font-family="Times,serif" font-size="14.00">1</text>
</g>
<!-- b0 -->
<g id="node2" class="node">
<title>b0</title>
<polygon fill="none" stroke="black" points="193,-81.69 193,-117.69 333,-117.69 333,-81.69 193,-81.69"/>
<text text-anchor="middle" x="206" y="-95.99" font-family="Times,serif" font-size="14.00">1</text>
<polyline fill="none" stroke="black" points="219,-81.69 219,-117.69 "/>
<text text-anchor="middle" x="236.5" y="-95.99" font-family="Times,serif" font-size="14.00">00</text>
<polyline fill="none" stroke="black" points="254,-81.69 254,-117.69 "/>
<text text-anchor="middle" x="267" y="-95.99" font-family="Times,serif" font-size="14.00">1</text>
<polyline fill="none" stroke="black" points="280,-81.69 280,-117.69 "/>
<text text-anchor="middle" x="306.5" y="-95.99" font-family="Times,serif" font-size="14.00">0000</text>
</g>
<!-- root&#45;&gt;b0 -->
<!-- root&#45;&gt;b0 -->
<g id="edge7" class="edge">
<title>root:n&#45;&gt;b0:nw</title>
<path fill="none" stroke="black" d="M12.5,-118.69C12.5,-195.47 125.87,-176.33 185.33,-124.82"/>
<polygon fill="black" stroke="black" points="188.06,-127.06 193,-117.69 183.29,-121.94 188.06,-127.06"/>
</g>
<!-- b1 -->
<g id="node3" class="node">
<title>b1</title>
<polygon fill="none" stroke="black" points="589,-81.69 589,-117.69 678,-117.69 678,-81.69 589,-81.69"/>
<text text-anchor="middle" x="633.5" y="-95.99" font-family="Times,serif" font-size="14.00">00000000</text>
</g>
<!-- root&#45;&gt;b1 -->
<g id="edge8" class="edge">
<title>root:s&#45;&gt;b1:s</title>
<path fill="none" stroke="black" d="M73.5,-80.69C73.5,-21.75 575.99,-18.64 628.99,-71.37"/>
<polygon fill="black" stroke="black" points="626,-73.21 633.5,-80.69 632.3,-70.16 626,-73.21"/>
</g>
<!-- b2 -->
<g id="node4" class="node">
<title>b2</title>
<polygon fill="none" stroke="black" points="714,-81.69 714,-117.69 837,-117.69 837,-81.69 714,-81.69"/>
<text text-anchor="middle" x="736" y="-95.99" font-family="Times,serif" font-size="14.00">000</text>
<polyline fill="none" stroke="black" points="758,-81.69 758,-117.69 "/>
<text text-anchor="middle" x="771" y="-95.99" font-family="Times,serif" font-size="14.00">1</text>
<polyline fill="none" stroke="black" points="784,-81.69 784,-117.69 "/>
<text text-anchor="middle" x="810.5" y="-95.99" font-family="Times,serif" font-size="14.00">0000</text>
</g>
<!-- root&#45;&gt;b2 -->
<g id="edge9" class="edge">
<title>root:s&#45;&gt;b2:s</title>
<path fill="none" stroke="black" d="M144.5,-80.69C144.5,46.05 320.37,-14.69 405,-14.69 405,-14.69 405,-14.69 517,-14.69 631.98,-14.69 767.05,34.75 775.12,-70.39"/>
<polygon fill="black" stroke="black" points="771.63,-70.83 775.5,-80.69 778.63,-70.57 771.63,-70.83"/>
</g>
<!-- c00 -->
<g id="node5" class="node">
<title>c00</title>
<text text-anchor="start" x="377" y="-95.99" font-family="monospace" font-size="14.00" fill="#d13232">#d13232</text>
</g>
<!-- b0&#45;&gt;c00 -->
<!-- b0&#45;&gt;c00 -->
<g id="edge10" class="edge">
<title>b0:n&#45;&gt;c00:n</title>
<path fill="none" stroke="black" d="M206,-118.69C206,-128.35 357.08,-129.61 396.62,-122.48"/>
<polygon fill="black" stroke="black" points="398.04,-125.68 406,-118.69 395.42,-119.19 398.04,-125.68"/>
</g>
<!-- c01 -->
<g id="node6" class="node">
<title>c01</title>
<text text-anchor="start" x="487" y="-95.99" font-family="monospace" font-size="14.00" fill="#6c6e3b">#6c6e3b</text>
</g>
<!-- b0&#45;&gt;c01 -->
<g id="edge11" class="edge">
<title>b0:n&#45;&gt;c01:n</title>
<path fill="none" stroke="black" d="M267,-118.69C267,-225.9 500.68,-229.25 515.29,-128.74"/>
<polygon fill="black" stroke="black" points="518.78,-128.91 516,-118.69 511.8,-128.42 518.78,-128.91"/>
</g>
<!-- b1&#45;&gt;b2 -->
<!-- c20 -->
<g id="node7" class="node">
<title>c20</title>
<text text-anchor="start" x="881" y="-95.99" font-family="monospace" font-size="14.00" fill="#1d6bd1">#1d6bd1</text>
</g>
<!-- b2&#45;&gt;c20 -->
<!-- b2&#45;&gt;c20 -->
<g id="edge12" class="edge">
<title>b2:n&#45;&gt;c20:n</title>
<path fill="none" stroke="black" d="M770.5,-118.69C770.5,-177.18 894.64,-180.49 908.71,-128.63"/>
<polygon fill="black" stroke="black" points="912.18,-129.06 910,-118.69 905.24,-128.16 912.18,-129.06"/>
</g>
<!-- c00&#45;&gt;c01 -->
<!-- c01&#45;&gt;b1 -->
</g>
</svg>
