<?xml version="1.0" encoding="UTF-8" standalone="no"?>
<svg width="320" height="320" viewBox="0 0 8 8" fill="#eee" xmlns="http://www.w3.org/2000/svg"
     xmlns:xlink="http://www.w3.org/1999/xlink">
    <rect x="0" y="0" width="8" height="8" fill="#333"/>

    <rect x="0" y="0" width="1" height="1" fill="#eee"/>
    <rect x="2" y="0" width="1" height="1" fill="#eee"/>
    <rect x="4" y="0" width="1" height="1" fill="#eee"/>
    <rect x="6" y="0" width="1" height="1" fill="#eee"/>

    <rect x="1" y="1" width="1" height="1" fill="#eee"/>
    <rect x="3" y="1" width="1" height="1" fill="#eee"/>
    <rect x="5" y="1" width="1" height="1" fill="#eee"/>
    <rect x="7" y="1" width="1" height="1" fill="#eee"/>

    <rect x="0" y="2" width="1" height="1" fill="#eee"/>
    <rect x="2" y="2" width="1" height="1" fill="#eee"/>
    <rect x="4" y="2" width="1" height="1" fill="#eee"/>
    <rect x="6" y="2" width="1" height="1" fill="#eee"/>

    <rect x="1" y="3" width="1" height="1" fill="#eee"/>
    <rect x="3" y="3" width="1" height="1" fill="#eee"/>
    <rect x="5" y="3" width="1" height="1" fill="#eee"/>
    <rect x="7" y="3" width="1" height="1" fill="#eee"/>

    <rect x="0" y="4" width="1" height="1" fill="#eee"/>
    <rect x="2" y="4" width="1" height="1" fill="#eee"/>
    <rect x="4" y="4" width="1" height="1" fill="#eee"/>
    <rect x="6" y="4" width="1" height="1" fill="#eee"/>

    <rect x="1" y="5" width="1" height="1" fill="#eee"/>
    <rect x="3" y="5" width="1" height="1" fill="#eee"/>
    <rect x="5" y="5" width="1" height="1" fill="#eee"/>
    <rect x="7" y="5" width="1" height="1" fill="#eee"/>

    <rect x="0" y="6" width="1" height="1" fill="#eee"/>
    <rect x="2" y="6" width="1" height="1" fill="#eee"/>
    <rect x="4" y="6" width="1" height="1" fill="#eee"/>
    <rect x="6" y="6" width="1" height="1" fill="#eee"/>

    <rect x="1" y="7" width="1" height="1" fill="#eee"/>
    <rect x="3" y="7" width="1" height="1" fill="#eee"/>
    <rect x="5" y="7" width="1" height="1" fill="#eee"/>
    <rect x="7" y="7" width="1" height="1" fill="#eee"/>

    <g transform="translate(.5 3.5) rotate(270)">
        <polyline id="hilbert" points="0,0 1,0 1,1 0,1 0,2 0,3 1,3 1,2 2,2 2,3 3,3 3,2 3,1 2,1 2,0 3,0"
              style="fill:none;stroke:#3cbd51;stroke-width:0.15" />
    </g>
    <g transform="translate(0.5 4.5)">
        <polyline points="0,-1.5 0,0 1,0" style="fill:none;stroke:#3cbd51;stroke-width:0.15"/>
        <use xlink:href="#hilbert"/>
    </g>
    <g transform="translate(4.5 4.5)">
        <polyline points="-1.5,0 0,0" style="fill:none;stroke:#3cbd51;stroke-width:0.15"/>
        <use xlink:href="#hilbert"/>
    </g>
    <g transform="translate(7.5 0.5) rotate(90)">
        <polyline points="2.5,0 4,0 4,1" style="fill:none;stroke:#3cbd51;stroke-width:0.15"/>
        <use xlink:href="#hilbert"/>
    </g>

</svg>
