<?xml version="1.0" encoding="UTF-8" standalone="no"?>
<!DOCTYPE svg PUBLIC "-//W3C//DTD SVG 1.1//EN"
 "http://www.w3.org/Graphics/SVG/1.1/DTD/svg11.dtd">
<!-- Generated by graphviz version 2.43.0 (0)
 -->
<!-- Title: g Pages: 1 -->
<svg width="253pt" height="304pt"
 viewBox="0.00 0.00 252.70 304.09" xmlns="http://www.w3.org/2000/svg" xmlns:xlink="http://www.w3.org/1999/xlink">
<g id="graph0" class="graph" transform="scale(1 1) rotate(0) translate(4 300.09)">
<title>g</title>
<!-- 1 -->
<g id="node1" class="node">
<title>1</title>
<ellipse fill="none" stroke="black" cx="150.35" cy="-278.09" rx="18" ry="18"/>
<text text-anchor="middle" x="150.35" y="-274.39" font-family="Times,serif" font-size="14.00">1</text>
</g>
<!-- 2 -->
<g id="node2" class="node">
<title>2</title>
<ellipse fill="none" stroke="black" cx="89.35" cy="-198.74" rx="18" ry="18"/>
<text text-anchor="middle" x="89.35" y="-195.04" font-family="Times,serif" font-size="14.00">2</text>
</g>
<!-- 1&#45;&gt;2 -->
<g id="edge1" class="edge">
<title>1&#45;&gt;2</title>
<path fill="none" stroke="black" d="M139.44,-263.26C130.33,-251.71 117.18,-235.03 106.64,-221.67"/>
<polygon fill="black" stroke="black" points="109.1,-219.13 100.16,-213.45 103.6,-223.47 109.1,-219.13"/>
</g>
<!-- 3/7 -->
<g id="node7" class="node">
<title>3/7</title>
<ellipse fill="none" stroke="black" cx="150.35" cy="-198.74" rx="25.2" ry="25.2"/>
<text text-anchor="middle" x="150.35" y="-195.04" font-family="Times,serif" font-size="14.00">3/7</text>
</g>
<!-- 1&#45;&gt;3/7 -->
<g id="edge6" class="edge">
<title>1&#45;&gt;3/7</title>
<path fill="none" stroke="black" d="M150.35,-259.92C150.35,-252.37 150.35,-243.22 150.35,-234.35"/>
<polygon fill="black" stroke="black" points="153.85,-234.19 150.35,-224.19 146.85,-234.19 153.85,-234.19"/>
</g>
<!-- 4/8 -->
<g id="node8" class="node">
<title>4/8</title>
<ellipse fill="none" stroke="black" cx="219.35" cy="-198.74" rx="25.2" ry="25.2"/>
<text text-anchor="middle" x="219.35" y="-195.04" font-family="Times,serif" font-size="14.00">4/8</text>
</g>
<!-- 1&#45;&gt;4/8 -->
<g id="edge7" class="edge">
<title>1&#45;&gt;4/8</title>
<path fill="none" stroke="black" d="M162.05,-263.97C171.35,-253.54 184.65,-238.64 196.09,-225.81"/>
<polygon fill="black" stroke="black" points="198.88,-227.94 202.92,-218.15 193.65,-223.28 198.88,-227.94"/>
</g>
<!-- 5/3 -->
<g id="node3" class="node">
<title>5/3</title>
<ellipse fill="none" stroke="black" cx="59.35" cy="-112.04" rx="25.2" ry="25.2"/>
<text text-anchor="middle" x="59.35" y="-108.34" font-family="Times,serif" font-size="14.00">5/3</text>
</g>
<!-- 2&#45;&gt;5/3 -->
<g id="edge2" class="edge">
<title>2&#45;&gt;5/3</title>
<path fill="none" stroke="black" d="M83.56,-181.41C79.96,-171.24 75.21,-157.81 70.86,-145.55"/>
<polygon fill="black" stroke="black" points="74.13,-144.3 67.5,-136.05 67.54,-146.64 74.13,-144.3"/>
</g>
<!-- 6 -->
<g id="node6" class="node">
<title>6</title>
<ellipse fill="none" stroke="black" cx="120.35" cy="-112.04" rx="18" ry="18"/>
<text text-anchor="middle" x="120.35" y="-108.34" font-family="Times,serif" font-size="14.00">6</text>
</g>
<!-- 2&#45;&gt;6 -->
<g id="edge5" class="edge">
<title>2&#45;&gt;6</title>
<path fill="none" stroke="black" d="M95.32,-181.41C99.74,-169.34 105.84,-152.67 110.92,-138.81"/>
<polygon fill="black" stroke="black" points="114.24,-139.92 114.39,-129.32 107.66,-137.51 114.24,-139.92"/>
</g>
<!-- 7/4 -->
<g id="node4" class="node">
<title>7/4</title>
<ellipse fill="none" stroke="black" cx="25.35" cy="-25.35" rx="25.2" ry="25.2"/>
<text text-anchor="middle" x="25.35" y="-21.65" font-family="Times,serif" font-size="14.00">7/4</text>
</g>
<!-- 5/3&#45;&gt;7/4 -->
<g id="edge3" class="edge">
<title>5/3&#45;&gt;7/4</title>
<path fill="none" stroke="black" d="M50.24,-88.35C46.58,-79.23 42.29,-68.56 38.32,-58.66"/>
<polygon fill="black" stroke="black" points="41.46,-57.08 34.48,-49.11 34.96,-59.69 41.46,-57.08"/>
</g>
<!-- 8/5 -->
<g id="node5" class="node">
<title>8/5</title>
<ellipse fill="none" stroke="black" cx="94.35" cy="-25.35" rx="25.2" ry="25.2"/>
<text text-anchor="middle" x="94.35" y="-21.65" font-family="Times,serif" font-size="14.00">8/5</text>
</g>
<!-- 5/3&#45;&gt;8/5 -->
<g id="edge4" class="edge">
<title>5/3&#45;&gt;8/5</title>
<path fill="none" stroke="black" d="M68.73,-88.35C72.53,-79.14 77,-68.34 81.12,-58.35"/>
<polygon fill="black" stroke="black" points="84.36,-59.69 84.94,-49.11 77.89,-57.01 84.36,-59.69"/>
</g>
<!-- 9 -->
<g id="node9" class="node">
<title>9</title>
<ellipse fill="none" stroke="black" cx="219.35" cy="-112.04" rx="18" ry="18"/>
<text text-anchor="middle" x="219.35" y="-108.34" font-family="Times,serif" font-size="14.00">9</text>
</g>
<!-- 4/8&#45;&gt;9 -->
<g id="edge8" class="edge">
<title>4/8&#45;&gt;9</title>
<path fill="none" stroke="black" d="M219.35,-173.24C219.35,-162.91 219.35,-150.84 219.35,-140.23"/>
<polygon fill="black" stroke="black" points="222.85,-140.23 219.35,-130.23 215.85,-140.23 222.85,-140.23"/>
</g>
</g>
</svg>
