<?xml version="1.0" encoding="UTF-8" standalone="no"?>
<!DOCTYPE svg PUBLIC "-//W3C//DTD SVG 1.1//EN"
 "http://www.w3.org/Graphics/SVG/1.1/DTD/svg11.dtd">
<!-- Generated by graphviz version 2.43.0 (0)
 -->
<!-- Title: g Pages: 1 -->
<svg width="494pt" height="117pt"
 viewBox="0.00 0.00 494.00 117.00" xmlns="http://www.w3.org/2000/svg" xmlns:xlink="http://www.w3.org/1999/xlink">
<g id="graph0" class="graph" transform="scale(1 1) rotate(0) translate(4 113)">
<title>g</title>
<!-- root -->
<g id="node1" class="node">
<title>root</title>
<polygon fill="none" stroke="black" points="198.5,-72.5 198.5,-108.5 287.5,-108.5 287.5,-72.5 198.5,-72.5"/>
<text text-anchor="middle" x="243" y="-86.8" font-family="Times,serif" font-size="14.00">00000000</text>
</g>
<!-- c00 -->
<g id="node2" class="node">
<title>c00</title>
<text text-anchor="start" x="10" y="-14.3" font-family="monospace" font-size="14.00" fill="#d13232">#d33</text>
</g>
<!-- root&#45;&gt;c00 -->
<g id="edge1" class="edge">
<title>root&#45;&gt;c00</title>
<path fill="none" stroke="black" d="M198.24,-74.89C158.6,-61.95 101.4,-43.28 64.21,-31.14"/>
<polygon fill="black" stroke="black" points="64.88,-27.68 54.28,-27.9 62.7,-34.33 64.88,-27.68"/>
</g>
<!-- c01 -->
<g id="node3" class="node">
<title>c01</title>
<text text-anchor="start" x="82" y="-14.3" font-family="monospace" font-size="14.00" fill="#6c6e3b">#663</text>
</g>
<!-- root&#45;&gt;c01 -->
<g id="edge2" class="edge">
<title>root&#45;&gt;c01</title>
<path fill="none" stroke="black" d="M208.14,-72.43C186.15,-61.67 157.78,-47.78 135.48,-36.86"/>
<polygon fill="black" stroke="black" points="136.85,-33.64 126.33,-32.38 133.78,-39.92 136.85,-33.64"/>
</g>
<!-- c0x -->
<g id="node4" class="node">
<title>c0x</title>
<text text-anchor="middle" x="171" y="-14.3" font-family="Times,serif" font-size="14.00">...</text>
</g>
<!-- root&#45;&gt;c0x -->
<g id="edge3" class="edge">
<title>root&#45;&gt;c0x</title>
<path fill="none" stroke="black" stroke-width="2" d="M225.57,-72.43C216.62,-63.67 205.55,-52.83 195.73,-43.21"/>
<polygon fill="black" stroke="black" stroke-width="2" points="198.11,-40.65 188.52,-36.15 193.21,-45.65 198.11,-40.65"/>
</g>
<!-- c06 -->
<g id="node5" class="node">
<title>c06</title>
<text text-anchor="start" x="226" y="-14.3" font-family="monospace" font-size="14.00" fill="#c70000">#c00</text>
</g>
<!-- root&#45;&gt;c06 -->
<g id="edge4" class="edge">
<title>root&#45;&gt;c06</title>
<path fill="none" stroke="black" d="M243,-72.43C243,-64.67 243,-55.28 243,-46.56"/>
<polygon fill="black" stroke="black" points="246.5,-46.4 243,-36.4 239.5,-46.4 246.5,-46.4"/>
</g>
<!-- c07 -->
<g id="node6" class="node">
<title>c07</title>
<text text-anchor="start" x="298" y="-14.3" font-family="monospace" font-size="14.00" fill="#c2065a">#c05</text>
</g>
<!-- root&#45;&gt;c07 -->
<g id="edge6" class="edge">
<title>root&#45;&gt;c07</title>
<path fill="none" stroke="black" d="M260.43,-72.43C269.38,-63.67 280.45,-52.83 290.27,-43.21"/>
<polygon fill="black" stroke="black" points="292.79,-45.65 297.48,-36.15 287.89,-40.65 292.79,-45.65"/>
</g>
<!-- cxx -->
<g id="node7" class="node">
<title>cxx</title>
<text text-anchor="middle" x="387" y="-14.3" font-family="Times,serif" font-size="14.00">...</text>
</g>
<!-- root&#45;&gt;cxx -->
<g id="edge5" class="edge">
<title>root&#45;&gt;cxx</title>
<path fill="none" stroke="black" d="M277.86,-72.43C299.85,-61.67 328.22,-47.78 350.52,-36.86"/>
<polygon fill="black" stroke="black" points="352.22,-39.92 359.67,-32.38 349.15,-33.64 352.22,-39.92"/>
</g>
<!-- c77 -->
<g id="node8" class="node">
<title>c77</title>
<text text-anchor="start" x="442" y="-14.3" font-family="monospace" font-size="14.00" fill="#c98a2a">#c82</text>
</g>
<!-- root&#45;&gt;c77 -->
<g id="edge7" class="edge">
<title>root&#45;&gt;c77</title>
<path fill="none" stroke="black" d="M287.76,-74.89C327.4,-61.95 384.6,-43.28 421.79,-31.14"/>
<polygon fill="black" stroke="black" points="423.3,-34.33 431.72,-27.9 421.12,-27.68 423.3,-34.33"/>
</g>
</g>
</svg>
