<?xml version="1.0" encoding="UTF-8" standalone="no"?>
<!DOCTYPE svg PUBLIC "-//W3C//DTD SVG 1.1//EN"
 "http://www.w3.org/Graphics/SVG/1.1/DTD/svg11.dtd">
<!-- Generated by graphviz version 2.43.0 (0)
 -->
<!-- Title: g Pages: 1 -->
<svg width="538pt" height="108pt"
 viewBox="0.00 0.00 538.00 108.00" xmlns="http://www.w3.org/2000/svg" xmlns:xlink="http://www.w3.org/1999/xlink">
<g id="graph0" class="graph" transform="scale(1 1) rotate(0) translate(4 104)">
<title>g</title>
<!-- a -->
<g id="node1" class="node">
<title>a</title>
<polygon fill="gray" stroke="transparent" points="0,-75 0,-100 27,-100 27,-75 0,-75"/>
<polygon fill="none" stroke="black" points="0,-75 0,-100 27,-100 27,-75 0,-75"/>
<text text-anchor="start" x="5" y="-83.8" font-family="monospace" font-size="14.00"> &#160;</text>
<polygon fill="gray" stroke="transparent" points="27,-75 27,-100 54,-100 54,-75 27,-75"/>
<polygon fill="none" stroke="black" points="27,-75 27,-100 54,-100 54,-75 27,-75"/>
<text text-anchor="start" x="32" y="-83.8" font-family="monospace" font-size="14.00"> &#160;</text>
<polygon fill="none" stroke="black" points="54,-75 54,-100 81,-100 81,-75 54,-75"/>
<text text-anchor="start" x="59" y="-83.8" font-family="monospace" font-size="14.00"> &#160;</text>
<polygon fill="none" stroke="black" points="81,-75 81,-100 108,-100 108,-75 81,-75"/>
<text text-anchor="start" x="86.5" y="-85.3" font-family="monospace" font-size="9.00">3,3</text>
<polygon fill="gray" stroke="transparent" points="0,-50 0,-75 27,-75 27,-50 0,-50"/>
<polygon fill="none" stroke="black" points="0,-50 0,-75 27,-75 27,-50 0,-50"/>
<text text-anchor="start" x="5" y="-58.8" font-family="monospace" font-size="14.00"> &#160;</text>
<polygon fill="gray" stroke="transparent" points="27,-50 27,-75 54,-75 54,-50 27,-50"/>
<polygon fill="none" stroke="black" points="27,-50 27,-75 54,-75 54,-50 27,-50"/>
<text text-anchor="start" x="32" y="-58.8" font-family="monospace" font-size="14.00"> &#160;</text>
<polygon fill="none" stroke="black" points="54,-50 54,-75 81,-75 81,-50 54,-50"/>
<text text-anchor="start" x="63" y="-58.8" font-family="monospace" font-size="14.00"> </text>
<polygon fill="none" stroke="black" points="81,-50 81,-75 108,-75 108,-50 81,-50"/>
<text text-anchor="start" x="90" y="-58.8" font-family="monospace" font-size="14.00"> </text>
<polygon fill="gray" stroke="transparent" points="0,-25 0,-50 27,-50 27,-25 0,-25"/>
<polygon fill="none" stroke="black" points="0,-25 0,-50 27,-50 27,-25 0,-25"/>
<text text-anchor="start" x="5" y="-33.8" font-family="monospace" font-size="14.00"> &#160;</text>
<polygon fill="gray" stroke="transparent" points="27,-25 27,-50 54,-50 54,-25 27,-25"/>
<polygon fill="none" stroke="black" points="27,-25 27,-50 54,-50 54,-25 27,-25"/>
<text text-anchor="start" x="32" y="-33.8" font-family="monospace" font-size="14.00"> &#160;</text>
<polygon fill="gray" stroke="transparent" points="54,-25 54,-50 81,-50 81,-25 54,-25"/>
<polygon fill="none" stroke="black" points="54,-25 54,-50 81,-50 81,-25 54,-25"/>
<text text-anchor="start" x="59" y="-33.8" font-family="monospace" font-size="14.00"> &#160;</text>
<polygon fill="gray" stroke="transparent" points="81,-25 81,-50 108,-50 108,-25 81,-25"/>
<polygon fill="none" stroke="black" points="81,-25 81,-50 108,-50 108,-25 81,-25"/>
<text text-anchor="start" x="86" y="-33.8" font-family="monospace" font-size="14.00"> &#160;</text>
<polygon fill="gray" stroke="transparent" points="0,0 0,-25 27,-25 27,0 0,0"/>
<polygon fill="none" stroke="black" points="0,0 0,-25 27,-25 27,0 0,0"/>
<text text-anchor="start" x="5" y="-8.8" font-family="monospace" font-size="14.00"> &#160;</text>
<polygon fill="gray" stroke="transparent" points="27,0 27,-25 54,-25 54,0 27,0"/>
<polygon fill="none" stroke="black" points="27,0 27,-25 54,-25 54,0 27,0"/>
<text text-anchor="start" x="32" y="-8.8" font-family="monospace" font-size="14.00"> &#160;</text>
<polygon fill="gray" stroke="transparent" points="54,0 54,-25 81,-25 81,0 54,0"/>
<polygon fill="none" stroke="black" points="54,0 54,-25 81,-25 81,0 54,0"/>
<text text-anchor="start" x="59" y="-8.8" font-family="monospace" font-size="14.00"> &#160;</text>
<polygon fill="gray" stroke="transparent" points="81,0 81,-25 108,-25 108,0 81,0"/>
<polygon fill="none" stroke="black" points="81,0 81,-25 108,-25 108,0 81,0"/>
<text text-anchor="start" x="86" y="-8.8" font-family="monospace" font-size="14.00"> &#160;</text>
</g>
<!-- b -->
<g id="node2" class="node">
<title>b</title>
<polygon fill="gray" stroke="transparent" points="265,-50 265,-75 292,-75 292,-50 265,-50"/>
<polygon fill="none" stroke="black" points="265,-50 265,-75 292,-75 292,-50 265,-50"/>
<text text-anchor="start" x="270" y="-58.8" font-family="monospace" font-size="14.00"> &#160;</text>
<polygon fill="none" stroke="black" points="292,-50 292,-75 319,-75 319,-50 292,-50"/>
<text text-anchor="start" x="297.5" y="-60.3" font-family="monospace" font-size="9.00">1,1</text>
<polygon fill="gray" stroke="transparent" points="265,-25 265,-50 292,-50 292,-25 265,-25"/>
<polygon fill="none" stroke="black" points="265,-25 265,-50 292,-50 292,-25 265,-25"/>
<text text-anchor="start" x="270" y="-33.8" font-family="monospace" font-size="14.00"> &#160;</text>
<polygon fill="gray" stroke="transparent" points="292,-25 292,-50 319,-50 319,-25 292,-25"/>
<polygon fill="none" stroke="black" points="292,-25 292,-50 319,-50 319,-25 292,-25"/>
<text text-anchor="start" x="297" y="-33.8" font-family="monospace" font-size="14.00"> &#160;</text>
</g>
<!-- a&#45;&gt;b -->
<g id="edge1" class="edge">
<title>a&#45;&gt;b</title>
<path fill="none" stroke="black" stroke-dasharray="1,5" d="M108.26,-50C152.96,-50 215.63,-50 254.74,-50"/>
<polygon fill="black" stroke="black" points="254.87,-53.5 264.87,-50 254.87,-46.5 254.87,-53.5"/>
<text text-anchor="middle" x="186.5" y="-53.8" font-family="monospace" font-size="14.00">s += (2,2)</text>
</g>
<!-- c -->
<g id="node3" class="node">
<title>c</title>
<polygon fill="none" stroke="black" points="530,-68 476,-68 476,-32 530,-32 530,-68"/>
<text text-anchor="middle" x="503" y="-46.3" font-family="monospace" font-size="14.00">0,0</text>
</g>
<!-- b&#45;&gt;c -->
<g id="edge2" class="edge">
<title>b&#45;&gt;c</title>
<path fill="none" stroke="black" stroke-dasharray="1,5" d="M319.05,-50C356.07,-50 424.05,-50 465.91,-50"/>
<polygon fill="black" stroke="black" points="465.95,-53.5 475.95,-50 465.95,-46.5 465.95,-53.5"/>
<text text-anchor="middle" x="397.5" y="-53.8" font-family="monospace" font-size="14.00">s += (1,1)</text>
</g>
</g>
</svg>
