<?xml version="1.0" encoding="UTF-8" standalone="no"?>
<!DOCTYPE svg PUBLIC "-//W3C//DTD SVG 1.1//EN"
 "http://www.w3.org/Graphics/SVG/1.1/DTD/svg11.dtd">
<!-- Generated by graphviz version 2.43.0 (0)
 -->
<!-- Title: g Pages: 1 -->
<svg width="370pt" height="108pt"
 viewBox="0.00 0.00 370.00 108.00" xmlns="http://www.w3.org/2000/svg" xmlns:xlink="http://www.w3.org/1999/xlink">
<g id="graph0" class="graph" transform="scale(1 1) rotate(0) translate(4 104)">
<title>g</title>
<!-- a -->
<g id="node1" class="node">
<title>a</title>
<polygon fill="gray" stroke="transparent" points="0,-75 0,-100 27,-100 27,-75 0,-75"/>
<polygon fill="none" stroke="black" points="0,-75 0,-100 27,-100 27,-75 0,-75"/>
<text text-anchor="start" x="5" y="-83.8" font-family="monospace" font-size="14.00"> &#160;</text>
<polygon fill="gray" stroke="transparent" points="27,-75 27,-100 54,-100 54,-75 27,-75"/>
<polygon fill="none" stroke="black" points="27,-75 27,-100 54,-100 54,-75 27,-75"/>
<text text-anchor="start" x="32" y="-83.8" font-family="monospace" font-size="14.00"> &#160;</text>
<polygon fill="none" stroke="black" points="54,-75 54,-100 81,-100 81,-75 54,-75"/>
<text text-anchor="start" x="59" y="-83.8" font-family="monospace" font-size="14.00"> &#160;</text>
<polygon fill="none" stroke="black" points="81,-75 81,-100 108,-100 108,-75 81,-75"/>
<text text-anchor="start" x="91.5" y="-85.3" font-family="monospace" font-size="9.00">b</text>
<polygon fill="gray" stroke="transparent" points="0,-50 0,-75 27,-75 27,-50 0,-50"/>
<polygon fill="none" stroke="black" points="0,-50 0,-75 27,-75 27,-50 0,-50"/>
<text text-anchor="start" x="5" y="-58.8" font-family="monospace" font-size="14.00"> &#160;</text>
<polygon fill="gray" stroke="transparent" points="27,-50 27,-75 54,-75 54,-50 27,-50"/>
<polygon fill="none" stroke="black" points="27,-50 27,-75 54,-75 54,-50 27,-50"/>
<text text-anchor="start" x="32" y="-58.8" font-family="monospace" font-size="14.00"> &#160;</text>
<polygon fill="none" stroke="black" points="54,-50 54,-75 81,-75 81,-50 54,-50"/>
<text text-anchor="start" x="63" y="-58.8" font-family="monospace" font-size="14.00"> </text>
<polygon fill="none" stroke="black" points="81,-50 81,-75 108,-75 108,-50 81,-50"/>
<text text-anchor="start" x="90" y="-58.8" font-family="monospace" font-size="14.00"> </text>
<polygon fill="gray" stroke="transparent" points="0,-25 0,-50 27,-50 27,-25 0,-25"/>
<polygon fill="none" stroke="black" points="0,-25 0,-50 27,-50 27,-25 0,-25"/>
<text text-anchor="start" x="5" y="-33.8" font-family="monospace" font-size="14.00"> &#160;</text>
<polygon fill="gray" stroke="transparent" points="27,-25 27,-50 54,-50 54,-25 27,-25"/>
<polygon fill="none" stroke="black" points="27,-25 27,-50 54,-50 54,-25 27,-25"/>
<text text-anchor="start" x="32" y="-33.8" font-family="monospace" font-size="14.00"> &#160;</text>
<polygon fill="gray" stroke="transparent" points="54,-25 54,-50 81,-50 81,-25 54,-25"/>
<polygon fill="none" stroke="black" points="54,-25 54,-50 81,-50 81,-25 54,-25"/>
<text text-anchor="start" x="59" y="-33.8" font-family="monospace" font-size="14.00"> &#160;</text>
<polygon fill="gray" stroke="transparent" points="81,-25 81,-50 108,-50 108,-25 81,-25"/>
<polygon fill="none" stroke="black" points="81,-25 81,-50 108,-50 108,-25 81,-25"/>
<text text-anchor="start" x="86" y="-33.8" font-family="monospace" font-size="14.00"> &#160;</text>
<polygon fill="gray" stroke="transparent" points="0,0 0,-25 27,-25 27,0 0,0"/>
<polygon fill="none" stroke="black" points="0,0 0,-25 27,-25 27,0 0,0"/>
<text text-anchor="start" x="5" y="-8.8" font-family="monospace" font-size="14.00"> &#160;</text>
<polygon fill="gray" stroke="transparent" points="27,0 27,-25 54,-25 54,0 27,0"/>
<polygon fill="none" stroke="black" points="27,0 27,-25 54,-25 54,0 27,0"/>
<text text-anchor="start" x="32" y="-8.8" font-family="monospace" font-size="14.00"> &#160;</text>
<polygon fill="gray" stroke="transparent" points="54,0 54,-25 81,-25 81,0 54,0"/>
<polygon fill="none" stroke="black" points="54,0 54,-25 81,-25 81,0 54,0"/>
<text text-anchor="start" x="59" y="-8.8" font-family="monospace" font-size="14.00"> &#160;</text>
<polygon fill="gray" stroke="transparent" points="81,0 81,-25 108,-25 108,0 81,0"/>
<polygon fill="none" stroke="black" points="81,0 81,-25 108,-25 108,0 81,0"/>
<text text-anchor="start" x="86" y="-8.8" font-family="monospace" font-size="14.00"> &#160;</text>
</g>
<!-- b -->
<g id="node2" class="node">
<title>b</title>
<polygon fill="gray" stroke="transparent" points="181,-50 181,-75 208,-75 208,-50 181,-50"/>
<polygon fill="none" stroke="black" points="181,-50 181,-75 208,-75 208,-50 181,-50"/>
<text text-anchor="start" x="186" y="-58.8" font-family="monospace" font-size="14.00"> &#160;</text>
<polygon fill="none" stroke="black" points="208,-50 208,-75 235,-75 235,-50 208,-50"/>
<text text-anchor="start" x="218.5" y="-60.3" font-family="monospace" font-size="9.00">b</text>
<polygon fill="gray" stroke="transparent" points="181,-25 181,-50 208,-50 208,-25 181,-25"/>
<polygon fill="none" stroke="black" points="181,-25 181,-50 208,-50 208,-25 181,-25"/>
<text text-anchor="start" x="186" y="-33.8" font-family="monospace" font-size="14.00"> &#160;</text>
<polygon fill="gray" stroke="transparent" points="208,-25 208,-50 235,-50 235,-25 208,-25"/>
<polygon fill="none" stroke="black" points="208,-25 208,-50 235,-50 235,-25 208,-25"/>
<text text-anchor="start" x="213" y="-33.8" font-family="monospace" font-size="14.00"> &#160;</text>
</g>
<!-- a&#45;&gt;b -->
<g id="edge1" class="edge">
<title>a&#45;&gt;b</title>
<path fill="none" stroke="black" stroke-dasharray="1,5" d="M108.16,-50C128.87,-50 152.07,-50 170.79,-50"/>
<polygon fill="black" stroke="black" points="170.96,-53.5 180.96,-50 170.96,-46.5 170.96,-53.5"/>
</g>
<!-- c -->
<g id="node3" class="node">
<title>c</title>
<polygon fill="none" stroke="black" points="362,-68 308,-68 308,-32 362,-32 362,-68"/>
<text text-anchor="middle" x="335" y="-46.3" font-family="monospace" font-size="14.00">b</text>
</g>
<!-- b&#45;&gt;c -->
<g id="edge2" class="edge">
<title>b&#45;&gt;c</title>
<path fill="none" stroke="black" stroke-dasharray="1,5" d="M235.2,-50C253.37,-50 277.8,-50 297.82,-50"/>
<polygon fill="black" stroke="black" points="297.83,-53.5 307.83,-50 297.83,-46.5 297.83,-53.5"/>
</g>
</g>
</svg>
