<?xml version="1.0" encoding="UTF-8" standalone="no"?>
<!DOCTYPE svg PUBLIC "-//W3C//DTD SVG 1.1//EN"
 "http://www.w3.org/Graphics/SVG/1.1/DTD/svg11.dtd">
<!-- Generated by graphviz version 2.43.0 (0)
 -->
<!-- Title: g Pages: 1 -->
<svg width="272pt" height="101pt"
 viewBox="0.00 0.00 272.00 101.00" xmlns="http://www.w3.org/2000/svg" xmlns:xlink="http://www.w3.org/1999/xlink">
<g id="graph0" class="graph" transform="scale(1 1) rotate(0) translate(4 97)">
<title>g</title>
<!-- source -->
<g id="node1" class="node">
<title>source</title>
<polygon fill="none" stroke="black" points="0,-23.5 0,-69.5 54,-69.5 54,-23.5 0,-23.5"/>
<text text-anchor="middle" x="13.5" y="-54.3" font-family="monospace" font-size="14.00">1</text>
<polyline fill="none" stroke="black" points="27,-46.5 27,-69.5 "/>
<text text-anchor="middle" x="40.5" y="-54.3" font-family="monospace" font-size="14.00">3</text>
<polyline fill="none" stroke="black" points="0,-46.5 54,-46.5 "/>
<text text-anchor="middle" x="13.5" y="-31.3" font-family="monospace" font-size="14.00">0</text>
<polyline fill="none" stroke="black" points="27,-23.5 27,-46.5 "/>
<text text-anchor="middle" x="40.5" y="-31.3" font-family="monospace" font-size="14.00">2</text>
</g>
<!-- target -->
<g id="node2" class="node">
<title>target</title>
<polygon fill="none" stroke="black" points="164,-0.5 164,-92.5 264,-92.5 264,-0.5 164,-0.5"/>
<text text-anchor="middle" x="176.5" y="-77.3" font-family="monospace" font-size="14.00"> </text>
<polyline fill="none" stroke="black" points="189,-69.5 189,-92.5 "/>
<text text-anchor="middle" x="201.5" y="-77.3" font-family="monospace" font-size="14.00"> </text>
<polyline fill="none" stroke="black" points="214,-69.5 214,-92.5 "/>
<text text-anchor="middle" x="226.5" y="-77.3" font-family="monospace" font-size="14.00"> </text>
<polyline fill="none" stroke="black" points="239,-69.5 239,-92.5 "/>
<text text-anchor="middle" x="251.5" y="-77.3" font-family="monospace" font-size="14.00"> </text>
<polyline fill="none" stroke="black" points="164,-69.5 264,-69.5 "/>
<text text-anchor="middle" x="176.5" y="-54.3" font-family="monospace" font-size="14.00"> </text>
<polyline fill="none" stroke="black" points="189,-46.5 189,-69.5 "/>
<text text-anchor="middle" x="201.5" y="-54.3" font-family="monospace" font-size="14.00"> </text>
<polyline fill="none" stroke="black" points="214,-46.5 214,-69.5 "/>
<text text-anchor="middle" x="226.5" y="-54.3" font-family="monospace" font-size="14.00"> </text>
<polyline fill="none" stroke="black" points="239,-46.5 239,-69.5 "/>
<text text-anchor="middle" x="251.5" y="-54.3" font-family="monospace" font-size="14.00"> </text>
<polyline fill="none" stroke="black" points="164,-46.5 264,-46.5 "/>
<text text-anchor="middle" x="176.5" y="-31.3" font-family="monospace" font-size="14.00">1</text>
<polyline fill="none" stroke="black" points="189,-23.5 189,-46.5 "/>
<text text-anchor="middle" x="201.5" y="-31.3" font-family="monospace" font-size="14.00">3</text>
<polyline fill="none" stroke="black" points="214,-23.5 214,-46.5 "/>
<text text-anchor="middle" x="226.5" y="-31.3" font-family="monospace" font-size="14.00"> </text>
<polyline fill="none" stroke="black" points="239,-23.5 239,-46.5 "/>
<text text-anchor="middle" x="251.5" y="-31.3" font-family="monospace" font-size="14.00"> </text>
<polyline fill="none" stroke="black" points="164,-23.5 264,-23.5 "/>
<text text-anchor="middle" x="176.5" y="-8.3" font-family="monospace" font-size="14.00">0</text>
<polyline fill="none" stroke="black" points="189,-0.5 189,-23.5 "/>
<text text-anchor="middle" x="201.5" y="-8.3" font-family="monospace" font-size="14.00">2</text>
<polyline fill="none" stroke="black" points="214,-0.5 214,-23.5 "/>
<text text-anchor="middle" x="226.5" y="-8.3" font-family="monospace" font-size="14.00"> </text>
<polyline fill="none" stroke="black" points="239,-0.5 239,-23.5 "/>
<text text-anchor="middle" x="251.5" y="-8.3" font-family="monospace" font-size="14.00"> </text>
</g>
<!-- source&#45;&gt;target -->
<g id="edge1" class="edge">
<title>source&#45;&gt;target</title>
<path fill="none" stroke="black" stroke-dasharray="1,5" d="M54.11,-46.5C79.84,-46.5 120.04,-46.5 153.57,-46.5"/>
<polygon fill="black" stroke="black" points="153.74,-50 163.74,-46.5 153.74,-43 153.74,-50"/>
</g>
</g>
</svg>
